<?xml version="1.0"?>
<svg xmlns="http://www.w3.org/2000/svg" id="Line_expand" height="512px" viewBox="0 0 512 512" width="512px" data-name="Line expand" class=""><g><g><path d="m478 120h-14v-96a8 8 0 0 0 -8-8h-312v16h304v32h-384v-32h64v-16h-72a8 8 0 0 0 -8 8v96h-14a18.021 18.021 0 0 0 -18 18v260a18.021 18.021 0 0 0 18 18h166v3.17a31.957 31.957 0 0 1 -21.88 30.357l-6.974 2.325a27.966 27.966 0 0 0 -19.146 26.563v9.585a8 8 0 0 0 8 8h192a8 8 0 0 0 8-8v-9.585a27.966 27.966 0 0 0 -19.146-26.563l-6.973-2.325a31.957 31.957 0 0 1 -21.881-30.357v-3.17h64v-16h-342a2 2 0 0 1 -2-2v-54h16v16a8 8 0 0 0 8 8h400a8 8 0 0 0 8-8v-16h16v54a2 2 0 0 1 -2 2h-86v16h86a18.021 18.021 0 0 0 18-18v-260a18.021 18.021 0 0 0 -18-18zm-182 296v3.17a47.938 47.938 0 0 0 32.821 45.537l6.973 2.324a11.985 11.985 0 0 1 8.206 11.384v1.585h-176v-1.585a11.986 11.986 0 0 1 8.205-11.384l6.975-2.324a47.939 47.939 0 0 0 32.82-45.537v-3.17zm-264-88v-190a2 2 0 0 1 2-2h14v192zm32 24v-272h384v272zm400-24v-192h14a2 2 0 0 1 2 2v190z" data-original="#000000" class="active-path" data-old_color="#000000" fill="#FEE3B8"/><path d="m416 40h16v16h-16z" data-original="#000000" class="active-path" data-old_color="#000000" fill="#FEE3B8"/><path d="m144 40h16v16h-16z" data-original="#000000" class="active-path" data-old_color="#000000" fill="#FEE3B8"/><path d="m80 40h16v16h-16z" data-original="#000000" class="active-path" data-old_color="#000000" fill="#FEE3B8"/><path d="m112 40h16v16h-16z" data-original="#000000" class="active-path" data-old_color="#000000" fill="#FEE3B8"/><path d="m168 224h40v16h-40z" data-original="#000000" class="active-path" data-old_color="#000000" fill="#FEE3B8"/><path d="m224 224h56v16h-56z" data-original="#000000" class="active-path" data-old_color="#000000" fill="#FEE3B8"/><path d="m168 256h24v16h-24z" data-original="#000000" class="active-path" data-old_color="#000000" fill="#FEE3B8"/><path d="m208 256h72v16h-72z" data-original="#000000" class="active-path" data-old_color="#000000" fill="#FEE3B8"/><path d="m168 288h96v16h-96z" data-original="#000000" class="active-path" data-old_color="#000000" fill="#FEE3B8"/><path d="m168 120h16v32h-16z" data-original="#000000" class="active-path" data-old_color="#000000" fill="#FEE3B8"/><path d="m392 176a39.966 39.966 0 0 0 -16-31.98v-20.02a28.032 28.032 0 0 0 -28-28h-184a28.032 28.032 0 0 0 -28 28v24a28.032 28.032 0 0 0 28 28h148a39.769 39.769 0 0 0 3.34 16h-171.34a8 8 0 0 0 -8 8v128a8 8 0 0 0 8 8h224a8 8 0 0 0 8-8v-120.02a40.168 40.168 0 0 0 4.5-3.947l31.379 18.827 8.232-13.72-30.879-18.528a39.8 39.8 0 0 0 2.768-14.612zm-16 0a24 24 0 1 1 -24-24 24.028 24.028 0 0 1 24 24zm-212-16a12.013 12.013 0 0 1 -12-12v-24a12.013 12.013 0 0 1 12-12h184a12.013 12.013 0 0 1 12 12v12.8a40.026 40.026 0 0 0 -44.66 23.2zm196 160h-208v-112h176v-.02a39.986 39.986 0 0 0 32 7.216z" data-original="#000000" class="active-path" data-old_color="#000000" fill="#FEE3B8"/></g></g> </svg>
