<?xml version="1.0"?>
<svg xmlns="http://www.w3.org/2000/svg" id="Capa_1" enable-background="new 0 0 512 512" height="512px" viewBox="0 0 512 512" width="512px" class=""><g><g><path d="m497.005 272.98c0-4.139 3.373-7.484 7.512-7.484s7.483 3.346 7.483 7.484v184.932c0 4.139-3.345 7.512-7.483 7.512h-296.593c-4.167 0-7.512-3.373-7.512-7.512v-8.9h-96.152c-4.138 0-7.483-3.346-7.483-7.484v-4.848h-89.264c-4.139 0-7.513-3.344-7.513-7.482v-156.218c0-4.139 3.374-7.484 7.513-7.484 4.138 0 7.483 3.346 7.483 7.484v148.705h81.752v-28.262h-48.898c-4.139 0-7.483-3.373-7.483-7.512s3.345-7.512 7.483-7.512h48.898v-28.318h-48.898c-4.139 0-7.483-3.346-7.483-7.484 0-4.139 3.345-7.512 7.483-7.512h48.898v-28.318h-48.898c-4.139 0-7.483-3.344-7.483-7.482 0-4.168 3.345-7.512 7.483-7.512h48.898v-23.697h-48.898c-4.139 0-7.483-3.373-7.483-7.512v-39.346c0-10.092 4.11-19.275 10.771-25.908 5.329-5.33 12.274-9.043 20.013-10.289-3.374-5.727-5.329-12.359-5.329-19.447v-33.164c0-6.832 2.806-13.039 7.285-17.52 4.507-4.506 10.715-7.285 17.547-7.285h6.094v-17.291h-81.752v148.706c0 4.139-3.345 7.484-7.483 7.484-4.139 0-7.513-3.346-7.513-7.484v-156.217c0-4.139 3.374-7.482 7.513-7.482h89.264v-4.848c0-4.139 3.345-7.484 7.483-7.484h96.153v-8.9c0-4.139 3.345-7.512 7.512-7.512h218.724c2.069 0 3.969.852 5.329 2.24l77.84 77.838c1.446 1.447 2.183 3.375 2.183 5.301v107.064c0 4.139-3.345 7.484-7.483 7.484-4.139 0-7.512-3.346-7.512-7.484v-99.58h-70.357c-4.138 0-7.512-3.346-7.512-7.484v-70.384h-203.729v388.855h281.597zm-400.257-123.195c-.113-.084-.227-.197-.34-.283-3.799 2.014-9.185 4.025-15.591 3.912v12.16c0 6.436 2.665 12.275 6.888 16.527 2.523 2.521 5.613 4.479 9.042 5.641v-37.957zm-15.931-11.308c4.28.17 8.391-1.418 11.594-4.195 1.247-1.078 2.806-1.674 4.337-1.787v-9.892h-6.094c-2.693 0-5.159 1.105-6.945 2.891-1.786 1.787-2.892 4.225-2.892 6.918zm119.596 3.513c-.284-.227-.567-.453-.851-.709-4.082 2.24-10.092 4.535-17.292 4.281v13.549c0 7.059 2.891 13.465 7.54 18.113 2.92 2.92 6.548 5.16 10.602 6.406v-41.64zm-18.143-11.394c4.706.34 9.751-1.445 13.266-4.564 1.418-1.219 3.147-1.815 4.876-1.815v-11.65h-7.087c-3.033 0-5.783 1.248-7.795 3.26-2.013 2.014-3.26 4.764-3.26 7.797zm-95.925 68.937h-9.298c-5.953 0-11.367 2.439-15.307 6.379-3.94 3.939-6.378 9.354-6.378 15.307v31.861h12.473v-20.637c0-4.139 3.373-7.482 7.512-7.482s7.484 3.344 7.484 7.482v20.637h13.918v-49.832c-3.686-.738-7.172-1.984-10.404-3.715zm114.068-.48c-4.111-.766-7.994-2.154-11.566-4.082h-10.091c-6.52 0-12.472 2.691-16.781 7.002-4.309 4.309-6.974 10.232-6.974 16.752v34.668h14.429v-22.621c0-4.139 3.345-7.482 7.512-7.482 4.138 0 7.483 3.344 7.483 7.482v22.621h15.988zm-27.1-18.682c-3.827-6.207-6.038-13.465-6.038-21.26v-35.488c0-7.172 2.92-13.691 7.654-18.398 4.706-4.732 11.225-7.652 18.397-7.652h7.087v-19.589h-88.641v356.031h88.641v-31.352h-52.924c-4.139 0-7.483-3.344-7.483-7.512 0-4.139 3.345-7.482 7.483-7.482h52.924v-31.408h-52.924c-4.139 0-7.483-3.373-7.483-7.512s3.345-7.484 7.483-7.484h52.924v-31.408h-52.924c-4.139 0-7.483-3.373-7.483-7.512s3.345-7.482 7.483-7.482h52.924v-26.477h-52.924c-4.139 0-7.483-3.344-7.483-7.482v-42.18c0-10.658 4.337-20.354 11.367-27.354 5.811-5.811 13.436-9.808 21.94-10.999zm175.977-39.883c-9.723 1.248-24.832.793-37.56-10.148-4.535 2.551-11.367 5.217-19.559 4.762v15.449c0 7.852 3.203 14.996 8.391 20.184s12.302 8.391 20.155 8.391c7.852 0 14.996-3.203 20.183-8.391 5.159-5.188 8.391-12.332 8.391-20.184v-10.063zm-57.119-20.381c5.471.596 11.424-1.418 15.534-5.074 3.118-2.693 7.853-2.354 10.545.766 9.978 11.451 23.726 10.969 31.039 9.637v-13.521c0-3.486-1.446-6.66-3.742-8.957-2.296-2.295-5.471-3.742-8.958-3.742h-31.749c-3.486 0-6.633 1.447-8.958 3.742-2.296 2.297-3.713 5.471-3.713 8.957v8.192zm72.115 30.444c0 8.703-2.579 16.838-7.002 23.641 9.496 1.135 18.057 5.471 24.52 11.936 7.512 7.512 12.19 17.885 12.19 29.309v45.895c0 4.137-3.374 7.512-7.513 7.512-43.824 0-87.676 0-131.501 0-4.167 0-7.512-3.375-7.512-7.512v-45.895c0-11.424 4.677-21.797 12.189-29.309 6.463-6.465 14.995-10.801 24.52-11.936-4.45-6.803-7.03-14.938-7.03-23.641v-38.637c0-7.625 3.118-14.541 8.135-19.559 5.018-5.018 11.934-8.135 19.559-8.135h31.749c7.625 0 14.57 3.117 19.56 8.135 5.018 5.018 8.136 11.934 8.136 19.559zm-22.99 38.381c-6.123 3.316-13.125 5.188-20.58 5.188-7.427 0-14.429-1.871-20.58-5.188h-11.14c-7.285 0-13.918 2.977-18.737 7.797-4.819 4.789-7.795 11.422-7.795 18.707v38.381h17.036v-25.256c0-4.166 3.345-7.512 7.512-7.512 4.138 0 7.483 3.346 7.483 7.512v25.256h52.441v-25.256c0-4.166 3.373-7.512 7.512-7.512s7.483 3.346 7.483 7.512v25.256h17.036v-38.381c0-7.285-2.976-13.918-7.796-18.707-4.79-4.82-11.423-7.797-18.709-7.797zm-86.316 226.035c-4.167 0-7.512-3.344-7.512-7.512 0-4.139 3.345-7.482 7.512-7.482h151.854c4.139 0 7.483 3.344 7.483 7.482 0 4.168-3.345 7.512-7.483 7.512zm0-50.514c-4.167 0-7.512-3.344-7.512-7.482 0-4.168 3.345-7.512 7.512-7.512h202.481c4.138 0 7.483 3.344 7.483 7.512 0 4.139-3.345 7.482-7.483 7.482zm0-50.513c-4.167 0-7.512-3.344-7.512-7.483s3.345-7.512 7.512-7.512h202.481c4.138 0 7.483 3.373 7.483 7.512s-3.345 7.483-7.483 7.483zm231.423-189.497-52.272-52.27v52.27z" data-original="#000000" class="active-path" data-old_color="#000000" fill="#FEE3B8"/></g></g> </svg>
