<svg id="Layer_35" enable-background="new 0 0 64 64" height="512" viewBox="0 0 64 64" width="512" xmlns="http://www.w3.org/2000/svg" xmlns:xlink="http://www.w3.org/1999/xlink"><linearGradient id="SVGID_1_" gradientUnits="userSpaceOnUse" x1="32" x2="32" y1="63" y2="1"><stop offset="0" stop-color="#9f2fff"/><stop offset="1" stop-color="#0bb1d3"/></linearGradient><path d="m35 11h-16v14h16zm-10 2h4v2h-4zm8 10h-12v-10h2v4h8v-4h2zm22-12h-16v14h16zm-10 2h4v2h-4zm4 10h-4v-2h4zm4 0h-2v-4h-8v4h-2v-10h2v4h8v-4h2zm2 4h-16v14h16zm-10 2h4v2h-4zm4 10h-4v-2h4zm4 0h-2v-4h-8v4h-2v-10h2v4h8v-4h2zm8-38h-48c-1.103 0-2 .897-2 2v2c0 1.103.897 2 2 2v22.08c-3.386.488-6 3.401-6 6.92 0 2.123.954 4.025 2.452 5.31-4.839 1.154-8.452 5.503-8.452 10.69v11h21v-11.913c0-.726.518-1.347 1.231-1.477l3.199-.582c1.558-.283 2.935-1.01 4.026-2.028h30.544v-40c1.103 0 2-.897 2-2v-2c0-1.103-.897-2-2-2zm-52 35c0-2.757 2.243-5 5-5s5 2.243 5 5-2.243 5-5 5-5-2.243-5-5zm17.073 11.062-3.199.581c-1.665.302-2.874 1.751-2.874 3.444v9.913h-12v-13h-2v13h-3v-9c0-4.963 4.037-9 9-9h12c2.206 0 4-1.794 4-4v-8.5c0-.827.673-1.5 1.5-1.5s1.5.673 1.5 1.5v10.658c0 2.902-2.072 5.384-4.927 5.904zm32.927-2.062h-26.988c.629-1.147.988-2.457.988-3.842v-10.658c0-1.93-1.57-3.5-3.5-3.5s-3.5 1.57-3.5 3.5v8.5c0 1.103-.897 2-2 2h-5.111c1.301-1.272 2.111-3.042 2.111-5 0-3.519-2.614-6.432-6-6.92v-22.08h44zm2-40h-48l-.002-2h.002 48z" fill="url(#SVGID_1_)"/></svg>